HIERARCHY
ROOT Hips
{
	OFFSET 0.00000 0.00000 0.00000
	CHANNELS 6 Xposition Yposition Zposition Yrotation Zrotation Xrotation 
	JOINT Lumbar
	{
		OFFSET 0 0 0
		CHANNELS 3 Zrotation Xrotation Yrotation
		JOINT Neck
		{
			OFFSET 0.00 0.2701 0.00
			CHANNELS 3 Zrotation Xrotation Yrotation
			End Site
			{
				OFFSET 0.00 0.1379 0.00
			}
		}
		JOINT RightShoulder
		{
			OFFSET 0.0119 0.2289 0.1181
			CHANNELS 3 Zrotation Xrotation Yrotation
			JOINT RightElbow
			{
				OFFSET 0.00 -0.1475 0.00
				CHANNELS 2 Zrotation Yrotation
				JOINT RightWrist
				{
					OFFSET 0.00 -0.1605 0.00
					CHANNELS 2 Zrotation Xrotation
					End Site
					{
						OFFSET 0.0040 -0.1068 0.0006
					}
				}
			}
		}
		JOINT LeftShoulder
		{
			OFFSET 0.0119 0.2289 -0.1181
			CHANNELS 3 Zrotation Xrotation Yrotation
			JOINT LeftElbow
			{
				OFFSET 0.00 -0.1475 0.00
				CHANNELS 2 Zrotation Yrotation
				JOINT LeftWrist
				{
					OFFSET 0.00 -0.1605 0.00
					CHANNELS 2 Zrotation Xrotation
					End Site
					{
						OFFSET 0.0040 -0.1068 -0.0006
					}
				}
			}
		}
	}
	JOINT RightHip
	{
		OFFSET 0.0316 -0.0424 0.0458
		CHANNELS 3 Zrotation Xrotation Yrotation
		JOINT RightKnee
		{
			OFFSET 0.00 -0.2438 0.00
			CHANNELS 1 Zrotation
			JOINT RightAnkle
			{
				OFFSET 0.00 -0.2449 0.00
				CHANNELS 3 Zrotation Xrotation Yrotation
				End Site
				{
					OFFSET 0.1237 -0.0542 0.0051
				}
			}
		}
	}
	JOINT LeftHip
	{
		OFFSET 0.0316 -0.0424 -0.0458
		CHANNELS 3 Zrotation Xrotation Yrotation
		JOINT LeftKnee
		{
			OFFSET 0.00 -0.2438 0.00
			CHANNELS 1 Zrotation
			JOINT LeftAnkle
			{
				OFFSET 0.00 -0.2449 0.00
				CHANNELS 3 Zrotation Xrotation Yrotation
				End Site
				{
					OFFSET 0.1237 -0.0542 -0.0051
				}
			}
		}
	}
}
MOTION
Frames: 31
Frame Time: 0.02
0.00033 3e-05 -6e-05 21.55147 -32.64105 -2.89179 56.50936 1.03089 1.94446 -6.13312 -2.45859 -1.04309 106.5913 -75.70639 -87.14534 11.40773 74.93537 -2.96926 -7.62019 133.96834 74.71965 87.1752 10.84388 -77.62326 -0.87581 10.33809 47.61269 -0.70281 -3.19034 -19.22825 -7.60277 -3.82915 -4.17044 51.38927 0.55262 4.55051 -24.54966 -7.92227 3.74731 4.12888
0.00042 4e-05 6e-05 21.59151 -32.66785 -2.92646 56.50314 0.98942 1.86785 -6.08324 -2.40492 -1.04446 106.44573 -75.72619 -87.14546 11.39373 74.939 -2.99459 -7.66253 134.32688 74.60761 87.16375 10.84031 -77.65781 -0.735 10.34764 47.61613 -0.76562 -3.78103 -19.22674 -7.56442 -3.78599 -4.14391 51.40631 0.64231 4.80554 -24.54461 -7.89673 3.72112 4.11377
0.00052 6e-05 0.00018 21.63142 -32.69462 -2.96103 56.49696 0.94806 1.79146 -6.03348 -2.35137 -1.04581 106.30078 -75.74601 -87.14558 11.37983 74.94264 -3.01978 -7.70476 134.68419 74.49589 87.15234 10.8367 -77.69217 -0.59471 10.35715 47.61959 -0.82837 -4.3707 -19.22524 -7.52615 -3.74291 -4.11744 51.42331 0.73192 5.0606 -24.53956 -7.87123 3.69494 4.09866
0.00061 7e-05 0.00031 21.67134 -32.72135 -2.99559 56.49078 0.90672 1.71508 -5.98375 -2.29786 -1.04717 106.1557 -75.76577 -87.14571 11.36588 74.94625 -3.04503 -7.74696 135.04163 74.38418 87.14093 10.83314 -77.7266 -0.45434 10.36668 47.62301 -0.89101 -4.95972 -19.22372 -7.48791 -3.69988 -4.09099 51.4403 0.82137 5.315 -24.53452 -7.84576 3.66882 4.08359
0.0007 9e-05 0.00043 21.71137 -32.7481 -3.03025 56.48454 0.86526 1.6385 -5.93389 -2.24423 -1.04853 106.0099 -75.78549 -87.14583 11.3518 74.94986 -3.07042 -7.78928 135.40025 74.27217 87.12946 10.82964 -77.76126 -0.31343 10.37624 47.62643 -0.95368 -5.5494 -19.22222 -7.44962 -3.6568 -4.06451 51.45732 0.91083 5.569 -24.52948 -7.82029 3.64271 4.06852
0.00079 0.0001 0.00055 21.75104 -32.77489 -3.06463 56.47846 0.82413 1.56253 -5.88433 -2.19088 -1.04988 105.86671 -75.80548 -87.14596 11.33829 74.95359 -3.0952 -7.83132 135.75475 74.16107 87.11819 10.8258 -77.79499 -0.17445 10.38565 47.62997 -1.01658 -6.13899 -19.22073 -7.41141 -3.61371 -4.03803 51.47429 1.00074 5.82626 -24.52443 -7.79472 3.61641 4.05333
0.00089 0.00012 0.00068 21.79141 -32.80161 -3.09953 56.47212 0.78238 1.48538 -5.83425 -2.13701 -1.05125 105.71855 -75.82493 -87.14608 11.32366 74.95702 -3.12119 -7.87385 136.11732 74.04827 87.10654 10.82267 -77.83054 -0.03172 10.39536 47.63319 -1.07893 -6.72823 -19.21914 -7.37305 -3.57069 -4.01158 51.49133 1.08968 6.07683 -24.51938 -7.76936 3.5905 4.0384
0.00098 0.00013 0.0008 21.83108 -32.82833 -3.13394 56.46594 0.74122 1.40936 -5.78462 -2.08363 -1.05261 105.57474 -75.84482 -87.14618 11.31003 74.96079 -3.14609 -7.91597 136.47215 73.93702 87.0952 10.81881 -77.86444 0.1075 10.40478 47.63683 -1.1418 -7.31756 -19.21781 -7.33486 -3.52761 -3.98512 51.50833 1.17943 6.33328 -24.51437 -7.74383 3.56425 4.02325
0.00107 0.00015 0.00092 21.87013 -32.85529 -3.16781 56.46029 0.70069 1.33454 -5.73563 -2.03078 -1.05393 105.43715 -75.86553 -87.14637 11.29776 74.96474 -3.16954 -7.95747 136.81883 73.82766 87.08441 10.81437 -77.8962 0.24267 10.4139 47.64051 -1.2053 -7.90832 -19.21613 -7.29675 -3.48442 -3.95858 51.5252 1.27056 6.59834 -24.50926 -7.71796 3.53747 4.00776
0.00117 0.00016 0.00105 21.91345 -32.88158 -3.20499 56.45257 0.65627 1.25227 -5.68322 -1.97471 -1.05539 105.26649 -75.88237 -87.14641 11.2781 74.96697 -3.20096 -8.00215 137.21637 73.7074 87.07097 10.81419 -77.93989 0.40187 10.4249 47.64255 -1.2652 -8.49484 -19.21443 -7.25778 -3.44175 -3.93227 51.54258 1.35492 6.81812 -24.50427 -7.69365 3.51342 3.99397
0.00125 0.00017 0.00116 21.94733 -32.90887 -3.23505 56.44858 0.62024 1.18608 -5.63789 -1.92554 -1.05659 105.16383 -75.90684 -87.14652 11.27372 74.97324 -3.2158 -8.04036 137.50402 73.61018 87.0628 10.80445 -77.95867 0.50991 10.43186 47.64891 -1.33266 -9.08766 -19.21408 -7.22091 -3.39808 -3.9056 51.55905 1.45282 7.1306 -24.4993 -7.66634 3.48384 3.97676
0.00129 0.00018 0.00121 21.95855 -32.94186 -3.24634 56.45942 0.60589 1.16169 -5.61323 -1.89439 -1.05698 105.2622 -75.9559 -87.14688 11.31397 74.98933 -3.18233 -8.05914 137.50523 73.57473 87.06948 10.77207 -77.90756 0.47994 10.42655 47.66071 -1.42148 -9.72036 -19.20783 -7.18752 -3.35067 -3.87699 51.57149 1.59452 7.72437 -24.49252 -7.62825 3.43704 3.94867
0.0013 0.00019 0.00124 21.95963 -32.97497 -3.25034 56.47266 0.60018 1.1541 -5.59541 -1.87029 -1.0572 105.42481 -76.01127 -87.14596 11.36886 75.01113 -3.13248 -8.07198 137.39097 73.5615 87.07981 10.72885 -77.83253 0.39802 10.41628 47.67831 -1.51795 -10.35542 -19.20551 -7.1567 -3.30241 -3.84818 51.58324 1.74867 8.40664 -24.48632 -7.58765 3.38505 3.9174
0.0013 0.0002 0.00128 21.96328 -33.00654 -3.25715 56.48238 0.59142 1.14007 -5.57372 -1.8436 -1.05746 105.55032 -76.06225 -87.14732 11.41556 75.02934 -3.09224 -8.08832 137.32262 73.54057 87.09017 10.68895 -77.76845 0.33854 10.4105 47.6971 -1.61028 -10.97439 -19.20662 -7.12616 -3.25522 -3.82011 51.59639 1.89267 9.03036 -24.48082 -7.54982 3.33678 3.88854
0.00138 0.0002 0.00131 21.9757 -33.0458 -3.26603 56.50431 0.57909 1.12017 -5.55545 -1.81448 -1.05754 105.71494 -76.12248 -87.14707 11.46965 75.04591 -3.0438 -8.10026 137.29128 73.51445 87.0998 10.65814 -77.70073 0.28455 10.39994 47.69864 -1.70468 -11.6559 -19.1824 -7.08941 -3.20526 -3.78937 51.60523 2.05528 9.73004 -24.47039 -7.50498 3.28281 3.85563
0.0013 0.00021 0.00136 21.96721 -33.06728 -3.26891 56.49896 0.57613 1.11756 -5.53143 -1.79191 -1.05836 105.80628 -76.16142 -87.14289 11.51071 75.07457 -3.00736 -8.12124 137.14353 73.4983 87.10381 10.60289 -77.639 0.206 10.39229 47.73886 -1.7975 -12.2088 -19.21601 -7.06634 -3.16071 -3.76405 51.62255 2.18256 10.29451 -24.47146 -7.4743 3.23944 3.83037
0.00086 0.00024 0.00147 21.90579 -33.05482 -3.25697 56.43782 0.59794 1.14854 -5.4917 -1.787 -1.0577 105.73814 -76.16912 -87.15522 11.52121 75.06999 -3.02303 -8.15474 136.80535 73.55544 87.12236 10.51166 -77.56414 0.07893 10.44708 47.87318 -1.87609 -12.39569 -19.3731 -7.07916 -3.13269 -3.75448 51.66696 2.20529 10.4457 -24.49509 -7.48209 3.22701 3.82732
0.00025 0.00027 0.00161 21.82328 -33.02162 -3.23944 56.34507 0.62869 1.19778 -5.44548 -1.78812 -1.05839 105.5821 -76.14906 -87.13607 11.51603 75.08768 -3.05177 -8.1981 136.33497 73.6117 87.10351 10.39331 -77.50224 -0.07265 10.49718 48.04863 -1.95421 -12.45449 -19.59483 -7.10596 -3.10991 -3.75023 51.71973 2.19285 10.46088 -24.53222 -7.5045 3.22538 3.83203
-0.00033 0.00029 0.00175 21.7489 -32.98791 -3.22424 56.25401 0.65473 1.24576 -5.40118 -1.78569 -1.06087 105.42914 -76.1235 -87.14214 11.51258 75.14033 -3.06063 -8.24868 135.85761 73.63554 87.11432 10.26528 -77.45842 -0.21684 10.51185 48.21227 -2.03796 -12.57929 -19.8101 -7.12708 -3.08383 -3.74304 51.76578 2.19904 10.55064 -24.56877 -7.52096 3.21852 3.83297
-0.00068 0.00036 0.00184 21.68026 -32.99608 -3.20888 56.21787 0.68392 1.26636 -5.36198 -1.78717 -1.05341 105.43812 -76.17746 -87.19444 11.53393 75.01059 -3.11457 -8.25807 135.65879 73.80111 87.17789 10.21955 -77.31479 -0.34548 10.67617 48.34584 -2.0996 -12.6733 -19.9288 -7.14516 -3.06158 -3.73804 51.82223 2.19421 10.59072 -24.58085 -7.53417 3.21277 3.83478
-0.00157 0.00033 0.00203 21.59483 -32.91217 -3.1936 56.05813 0.70843 1.34593 -5.30985 -1.78154 -1.06671 105.08302 -76.0556 -87.02718 11.49782 75.25624 -3.09452 -8.34508 134.85057 73.66796 86.98955 10.00893 -77.37963 -0.51357 10.5387 48.55326 -2.20645 -12.7985 -20.26386 -7.17322 -3.03266 -3.72977 51.86141 2.20415 10.69939 -24.64841 -7.55792 3.20741 3.83673
-0.00382 5e-05 0.00248 21.46676 -32.57922 -3.17165 55.57944 0.7189 1.60238 -5.22938 -1.75693 -1.13932 103.78508 -75.48229 -87.29354 11.33102 76.62195 -2.7219 -8.7389 132.38667 72.73573 87.29743 9.24307 -78.05104 -0.77071 9.47424 48.9415 -2.44326 -13.06255 -21.17906 -7.2223 -2.98349 -3.71082 51.83116 2.26103 11.04259 -24.85423 -7.60508 3.19977 3.83672
-0.00664 -0.00032 0.00303 21.32217 -32.15483 -3.15166 54.97503 0.72424 1.91397 -5.13502 -1.72427 -1.23233 102.11469 -74.72613 -87.17643 11.10788 78.35174 -2.29934 -9.19571 129.31588 71.49816 87.1632 8.33452 -78.9323 -1.07085 8.12337 49.40496 -2.72421 -13.35855 -22.30838 -7.28147 -2.92744 -3.68841 51.78748 2.33467 11.45692 -25.11719 -7.66279 3.19228 3.83669
-0.00926 -0.00068 0.00355 21.18696 -31.77153 -3.13606 54.41818 0.73104 2.18817 -5.04319 -1.69418 -1.3145 100.58902 -74.03803 -86.52093 10.88763 79.8518 -1.99764 -9.55776 126.52658 70.38332 86.4164 7.55826 -79.68668 -1.35789 6.96652 49.84263 -2.98214 -13.62568 -23.34272 -7.3381 -2.87506 -3.66789 51.76219 2.40178 11.83037 -25.36212 -7.71699 3.1852 3.83697
-0.01163 -0.00093 0.00401 21.04578 -31.38726 -3.09746 53.89937 0.74131 2.51528 -4.96703 -1.66993 -1.40337 99.16849 -73.41968 -88.75333 10.74009 81.60883 -1.291 -10.18738 123.70739 69.33559 88.97544 6.48662 -80.54684 -1.61125 5.54223 50.24668 -3.2542 -13.94828 -24.37625 -7.38674 -2.82104 -3.64644 51.68306 2.46185 12.23496 -25.57563 -7.76607 3.17653 3.83624
-0.01465 -0.00142 0.00461 20.91003 -30.98635 -3.10795 53.27351 0.74366 2.74478 -4.8551 -1.63021 -1.48304 97.43594 -72.60393 -85.03021 10.45633 82.93581 -1.40442 -10.28956 120.80958 68.07628 84.70404 6.00881 -81.2711 -1.95386 4.60413 50.7376 -3.50525 -14.16544 -25.45299 -7.45406 -2.76815 -3.62575 51.71563 2.54258 12.59372 -25.86596 -7.82837 3.17103 3.83752
-0.01927 -0.00256 0.00556 20.82181 -30.53816 -3.24759 52.36943 0.71966 2.69387 -4.64661 -1.56048 -1.53307 94.98063 -71.363 -63.6559 9.56803 82.81671 -3.89198 -8.78843 117.82479 66.30394 60.29914 7.10772 -81.25199 -2.44955 5.10133 51.45303 -3.70548 -14.07677 -26.67026 -7.57153 -2.72514 -3.61051 52.0352 2.66259 12.80377 -26.37116 -7.92243 3.17472 3.84447
-0.02452 -0.00395 0.00665 20.73416 -30.08096 -3.43737 51.36507 0.68882 2.54258 -4.40249 -1.47308 -1.57298 92.21507 -69.91445 -36.53856 8.59054 82.27939 -7.18799 -6.7772 114.78183 64.33188 29.28854 8.83107 -81.13459 -3.04613 6.0917 52.25181 -3.87982 -13.88264 -27.91033 -7.7069 -2.68265 -3.5957 52.47196 2.80513 12.9655 -26.94803 -8.02977 3.18156 3.85345
-0.02953 -0.00523 0.00768 20.62801 -29.64343 -3.60851 50.41496 0.6649 2.43503 -4.17592 -1.38713 -1.61705 89.56146 -68.51347 -12.91017 7.81194 82.05015 -10.05025 -5.08771 111.78348 62.45103 2.2139 10.32854 -81.28686 -3.65422 6.8437 53.01114 -4.05408 -13.74218 -29.09038 -7.83371 -2.63643 -3.57898 52.87162 2.94707 13.15481 -27.4817 -8.13232 3.18648 3.86135
-0.03438 -0.0065 0.00868 20.59932 -29.13665 -3.76353 49.42188 0.62498 2.336 -3.9446 -1.33006 -1.66373 87.01993 -67.30912 14.41961 6.36013 81.35338 -13.19206 -3.02741 108.70404 60.54942 -28.79916 11.56239 -80.55144 -4.03302 7.6532 53.78266 -4.27939 -13.57926 -30.48444 -7.96387 -2.60429 -3.5692 53.20372 3.05065 13.32812 -28.06425 -8.22991 3.19309 3.86973
-0.0397 -0.00785 0.00979 20.40832 -28.77354 -3.96238 48.49854 0.61649 2.19634 -3.71304 -1.207 -1.70225 84.17303 -65.64141 35.42761 6.29344 81.50377 -15.94276 -1.6092 105.7664 58.65787 -53.19717 13.51322 -81.57 -4.89855 8.45459 54.54393 -4.39229 -13.43674 -31.43936 -8.08965 -2.54359 -3.54532 53.70315 3.23705 13.51568 -28.55876 -8.34098 3.19739 3.87782
